<svg width="36" height="37" viewBox="0 0 36 37" fill="none" xmlns="http://www.w3.org/2000/svg">
<rect y="0.342596" width="36" height="36" rx="8" fill="white"/>
<path d="M21.5418 27.0926C22.3472 27.0926 23.0002 26.4397 23.0002 25.6343C23.0002 24.8288 22.3472 24.1759 21.5418 24.1759C20.7364 24.1759 20.0835 24.8288 20.0835 25.6343C20.0835 26.4397 20.7364 27.0926 21.5418 27.0926Z" fill="#5B6B79"/>
<path d="M14.8748 27.0926C15.6803 27.0926 16.3332 26.4397 16.3332 25.6343C16.3332 24.8288 15.6803 24.1759 14.8748 24.1759C14.0694 24.1759 13.4165 24.8288 13.4165 25.6343C13.4165 26.4397 14.0694 27.0926 14.8748 27.0926Z" fill="#5B6B79"/>
<path opacity="0.4" d="M12.0332 11.6259L11.8665 13.6676C11.8332 14.0593 12.1415 14.3843 12.5332 14.3843H25.2915C25.6415 14.3843 25.9332 14.1176 25.9582 13.7676C26.0665 12.2926 24.9415 11.0926 23.4665 11.0926H13.2415C13.1582 10.7259 12.9915 10.3759 12.7332 10.0843C12.3248 9.64259 11.7415 9.38426 11.1415 9.38426H9.6665C9.32484 9.38426 9.0415 9.6676 9.0415 10.0093C9.0415 10.3509 9.32484 10.6343 9.6665 10.6343H11.1165C11.3748 10.6343 11.6165 10.7426 11.7915 10.9259C11.9665 11.1176 12.0498 11.3676 12.0332 11.6259Z" fill="#5B6B79"/>
<path d="M25.0919 15.6343H12.3085C11.9585 15.6343 11.6752 15.9009 11.6419 16.2426L11.3419 19.8676C11.2252 21.2843 12.3419 22.5093 13.7669 22.5093H23.0335C24.2835 22.5093 25.3835 21.4843 25.4752 20.2343L25.7502 16.3426C25.7835 15.9593 25.4835 15.6343 25.0919 15.6343Z" fill="#5B6B79"/>
</svg>
