<svg width="36" height="37" viewBox="0 0 36 37" fill="none" xmlns="http://www.w3.org/2000/svg">
<rect y="0.342596" width="36" height="36" rx="8" fill="#4680FF"/>
<path d="M21.5416 27.0926C22.347 27.0926 22.9999 26.4397 22.9999 25.6343C22.9999 24.8288 22.347 24.1759 21.5416 24.1759C20.7362 24.1759 20.0833 24.8288 20.0833 25.6343C20.0833 26.4397 20.7362 27.0926 21.5416 27.0926Z" fill="white"/>
<path d="M14.8751 27.0926C15.6805 27.0926 16.3334 26.4397 16.3334 25.6343C16.3334 24.8288 15.6805 24.1759 14.8751 24.1759C14.0697 24.1759 13.4167 24.8288 13.4167 25.6343C13.4167 26.4397 14.0697 27.0926 14.8751 27.0926Z" fill="white"/>
<path opacity="0.4" d="M12.0334 11.6259L11.8667 13.6676C11.8334 14.0593 12.1418 14.3843 12.5334 14.3843H25.2917C25.6417 14.3843 25.9334 14.1176 25.9584 13.7676C26.0668 12.2926 24.9417 11.0926 23.4667 11.0926H13.2417C13.1584 10.7259 12.9917 10.3759 12.7334 10.0843C12.3251 9.64259 11.7418 9.38426 11.1418 9.38426H9.66675C9.32508 9.38426 9.04175 9.6676 9.04175 10.0093C9.04175 10.3509 9.32508 10.6343 9.66675 10.6343H11.1168C11.3751 10.6343 11.6168 10.7426 11.7918 10.9259C11.9668 11.1176 12.0501 11.3676 12.0334 11.6259Z" fill="white"/>
<path d="M25.0916 15.6343H12.3083C11.9583 15.6343 11.675 15.9009 11.6416 16.2426L11.3416 19.8676C11.225 21.2843 12.3416 22.5093 13.7666 22.5093H23.0333C24.2833 22.5093 25.3833 21.4843 25.475 20.2343L25.75 16.3426C25.7833 15.9593 25.4833 15.6343 25.0916 15.6343Z" fill="white"/>
</svg>
