<svg width="36" height="36" viewBox="0 0 36 36" fill="none" xmlns="http://www.w3.org/2000/svg">
<rect x="0.5" y="0.5" width="35" height="35" rx="7.5" fill="white"/>
<rect x="0.5" y="0.5" width="35" height="35" rx="7.5" stroke="#F5F5F5"/>
<path opacity="0.4" d="M26.3334 18V22.1667C26.3334 24.6667 24.6667 26.3333 22.1667 26.3333H13.8334C11.3334 26.3333 9.66675 24.6667 9.66675 22.1667V18C9.66675 15.7333 11.0334 14.15 13.1584 13.8833C13.3751 13.85 13.6001 13.8333 13.8334 13.8333H22.1667C22.3834 13.8333 22.5917 13.8417 22.7917 13.875C24.9417 14.125 26.3334 15.7167 26.3334 18Z" fill="#5B6B79"/>
<path d="M22.7918 13.875C22.5918 13.8417 22.3834 13.8333 22.1668 13.8333H13.8334C13.6001 13.8333 13.3751 13.85 13.1584 13.8833C13.2751 13.65 13.4418 13.4333 13.6418 13.2333L16.3501 10.5167C17.4918 9.38333 19.3418 9.38333 20.4834 10.5167L21.9418 11.9917C22.4751 12.5167 22.7584 13.1833 22.7918 13.875Z" fill="#5B6B79"/>
<path d="M26.3334 18.4167H23.8334C22.9167 18.4167 22.1667 19.1667 22.1667 20.0833C22.1667 21 22.9167 21.75 23.8334 21.75H26.3334" fill="#5B6B79"/>
</svg>
