<svg width="36" height="36" viewBox="0 0 36 36" fill="none" xmlns="http://www.w3.org/2000/svg">
<rect x="0.5" y="0.5" width="35" height="35" rx="7.5" fill="#4680FF"/>
<rect x="0.5" y="0.5" width="35" height="35" rx="7.5" stroke="#4680FF"/>
<path opacity="0.4" d="M26.3332 18V22.1667C26.3332 24.6667 24.6665 26.3333 22.1665 26.3333H13.8332C11.3332 26.3333 9.6665 24.6667 9.6665 22.1667V18C9.6665 15.7333 11.0332 14.15 13.1582 13.8833C13.3748 13.85 13.5998 13.8333 13.8332 13.8333H22.1665C22.3832 13.8333 22.5915 13.8417 22.7915 13.875C24.9415 14.125 26.3332 15.7167 26.3332 18Z" fill="white"/>
<path d="M22.7915 13.875C22.5915 13.8417 22.3832 13.8333 22.1665 13.8333H13.8332C13.5999 13.8333 13.3749 13.85 13.1582 13.8833C13.2749 13.65 13.4415 13.4333 13.6415 13.2333L16.3499 10.5167C17.4915 9.38333 19.3415 9.38333 20.4832 10.5167L21.9415 11.9917C22.4749 12.5167 22.7582 13.1833 22.7915 13.875Z" fill="white"/>
<path d="M26.3332 18.4167H23.8332C22.9165 18.4167 22.1665 19.1667 22.1665 20.0833C22.1665 21 22.9165 21.75 23.8332 21.75H26.3332" fill="white"/>
</svg>
