<svg width="36" height="36" viewBox="0 0 36 36" fill="none" xmlns="http://www.w3.org/2000/svg">
<rect x="0.5" y="0.5" width="35" height="35" rx="7.5" fill="white"/>
<rect x="0.5" y="0.5" width="35" height="35" rx="7.5" stroke="#F5F5F5"/>
<path opacity="0.4" d="M25.1834 15.0417C24.3084 11.1917 20.9501 9.45834 18.0001 9.45834C18.0001 9.45834 18.0001 9.45834 17.9917 9.45834C15.0501 9.45834 11.6834 11.1833 10.8084 15.0333C9.83341 19.3333 12.4667 22.975 14.8501 25.2667C15.7334 26.1167 16.8667 26.5417 18.0001 26.5417C19.1334 26.5417 20.2667 26.1167 21.1417 25.2667C23.5251 22.975 26.1584 19.3417 25.1834 15.0417Z" fill="#5B6B79"/>
<path d="M18 19.2167C19.4497 19.2167 20.625 18.0414 20.625 16.5917C20.625 15.1419 19.4497 13.9667 18 13.9667C16.5503 13.9667 15.375 15.1419 15.375 16.5917C15.375 18.0414 16.5503 19.2167 18 19.2167Z" fill="#5B6B79"/>
</svg>
