<svg width="37" height="37" viewBox="0 0 37 37" fill="none" xmlns="http://www.w3.org/2000/svg">
<rect x="0.5" y="0.833256" width="36" height="36" rx="8" fill="#4680FF"/>
<path opacity="0.4" d="M25.6833 15.8749C24.8083 12.0249 21.45 10.2916 18.5 10.2916C18.5 10.2916 18.5 10.2916 18.4916 10.2916C15.55 10.2916 12.1833 12.0166 11.3083 15.8666C10.3333 20.1666 12.9666 23.8083 15.35 26.0999C16.2333 26.9499 17.3666 27.3749 18.5 27.3749C19.6333 27.3749 20.7666 26.9499 21.6416 26.0999C24.025 23.8083 26.6583 20.1749 25.6833 15.8749Z" fill="white"/>
<path d="M18.5 20.0499C19.9497 20.0499 21.125 18.8747 21.125 17.4249C21.125 15.9752 19.9497 14.7999 18.5 14.7999C17.0503 14.7999 15.875 15.9752 15.875 17.4249C15.875 18.8747 17.0503 20.0499 18.5 20.0499Z" fill="white"/>
</svg>
