<svg width="36" height="36" viewBox="0 0 36 36" fill="none" xmlns="http://www.w3.org/2000/svg">
<rect x="0.5" y="0.5" width="35" height="35" rx="7.5" fill="white"/>
<rect x="0.5" y="0.5" width="35" height="35" rx="7.5" stroke="#F5F5F5"/>
<path opacity="0.4" d="M17.9999 18C20.3011 18 22.1666 16.1345 22.1666 13.8333C22.1666 11.5322 20.3011 9.66667 17.9999 9.66667C15.6987 9.66667 13.8333 11.5322 13.8333 13.8333C13.8333 16.1345 15.6987 18 17.9999 18Z" fill="#5B6B79"/>
<path d="M18 20.0833C13.825 20.0833 10.425 22.8833 10.425 26.3333C10.425 26.5667 10.6084 26.75 10.8417 26.75H25.1584C25.3917 26.75 25.575 26.5667 25.575 26.3333C25.575 22.8833 22.175 20.0833 18 20.0833Z" fill="#5B6B79"/>
</svg>
