<svg width="113" height="48" viewBox="0 0 113 48" fill="none" xmlns="http://www.w3.org/2000/svg">
<rect y="29" width="4.05263" height="19" rx="1" fill="#4680FF"/>
<rect x="6.05261" y="39" width="4.05263" height="9" rx="1" fill="#4680FF"/>
<rect x="12.1053" y="35" width="4.05263" height="13" rx="1" fill="#4680FF"/>
<rect x="18.1579" y="26" width="4.05263" height="22" rx="1" fill="#4680FF"/>
<rect x="24.2105" y="11" width="4.05263" height="37" rx="1" fill="#4680FF"/>
<rect x="30.2632" y="29" width="4.05263" height="19" rx="1" fill="#4680FF"/>
<rect x="36.3158" width="4.05263" height="48" rx="1" fill="#4680FF"/>
<rect x="42.3684" y="7" width="4.05263" height="41" rx="1" fill="#A3C0FF"/>
<rect x="48.421" y="29" width="4.05263" height="19" rx="1" fill="#4680FF"/>
<rect x="54.4737" y="39" width="4.05263" height="9" rx="1" fill="#4680FF"/>
<rect x="60.5263" y="35" width="4.05263" height="13" rx="1" fill="#4680FF"/>
<rect x="66.579" y="31" width="4.05263" height="17" rx="1" fill="#4680FF"/>
<rect x="72.6316" y="26" width="4.05263" height="22" rx="1" fill="#4680FF"/>
<rect x="78.6842" y="18" width="4.05263" height="30" rx="1" fill="#4680FF"/>
<rect x="84.7368" y="11" width="4.05263" height="37" rx="1" fill="#4680FF"/>
<rect x="90.7894" y="29" width="4.05263" height="19" rx="1" fill="#4680FF"/>
<rect x="96.8421" y="35" width="4.05263" height="13" rx="1" fill="#4680FF"/>
<rect x="102.895" y="39" width="4.05263" height="9" rx="1" fill="#4680FF"/>
<rect x="108.947" y="29" width="4.05263" height="19" rx="1" fill="#4680FF"/>
</svg>
