<svg width="114" height="48" viewBox="0 0 114 48" fill="none" xmlns="http://www.w3.org/2000/svg">
<rect x="0.333374" y="29" width="4.05263" height="19" rx="1" fill="#2CA87F"/>
<rect x="6.38599" y="39" width="4.05263" height="9" rx="1" fill="#2CA87F"/>
<rect x="12.4386" y="35" width="4.05263" height="13" rx="1" fill="#2CA87F"/>
<rect x="18.4912" y="26" width="4.05263" height="22" rx="1" fill="#2CA87F"/>
<rect x="24.5439" y="11" width="4.05263" height="37" rx="1" fill="#2CA87F"/>
<rect x="30.5966" y="29" width="4.05263" height="19" rx="1" fill="#2CA87F"/>
<rect x="36.6492" width="4.05263" height="48" rx="1" fill="#2CA87F"/>
<rect x="42.7018" y="7" width="4.05263" height="41" rx="1" fill="#96D4BF"/>
<rect x="48.7544" y="29" width="4.05263" height="19" rx="1" fill="#2CA87F"/>
<rect x="54.807" y="39" width="4.05263" height="9" rx="1" fill="#2CA87F"/>
<rect x="60.8597" y="35" width="4.05263" height="13" rx="1" fill="#2CA87F"/>
<rect x="66.9124" y="31" width="4.05263" height="17" rx="1" fill="#2CA87F"/>
<rect x="72.965" y="26" width="4.05263" height="22" rx="1" fill="#2CA87F"/>
<rect x="79.0176" y="18" width="4.05263" height="30" rx="1" fill="#2CA87F"/>
<rect x="85.0702" y="11" width="4.05263" height="37" rx="1" fill="#2CA87F"/>
<rect x="91.1228" y="29" width="4.05263" height="19" rx="1" fill="#2CA87F"/>
<rect x="97.1754" y="35" width="4.05263" height="13" rx="1" fill="#2CA87F"/>
<rect x="103.228" y="39" width="4.05263" height="9" rx="1" fill="#2CA87F"/>
<rect x="109.281" y="29" width="4.05263" height="19" rx="1" fill="#2CA87F"/>
</svg>
