<svg width="18" height="18" viewBox="0 0 18 18" fill="none" xmlns="http://www.w3.org/2000/svg">
<g clip-path="url(#clip0_467_3669)">
<path d="M12.75 6V4.5C12.75 2.43 11.07 0.75 9 0.75C6.93 0.75 5.25 2.43 5.25 4.5V6H3V16.5H15V6H12.75ZM6.75 4.5C6.75 3.255 7.755 2.25 9 2.25C10.245 2.25 11.25 3.255 11.25 4.5V6H6.75V4.5ZM13.5 15H4.5V7.5H13.5V15ZM9 12.75C9.825 12.75 10.5 12.075 10.5 11.25C10.5 10.425 9.825 9.75 9 9.75C8.175 9.75 7.5 10.425 7.5 11.25C7.5 12.075 8.175 12.75 9 12.75Z" fill="#353535"/>
</g>
<defs>
<clipPath id="clip0_467_3669">
<rect width="18" height="18" fill="white"/>
</clipPath>
</defs>
</svg>
