<svg width="26" height="26" viewBox="0 0 26 26" fill="none" xmlns="http://www.w3.org/2000/svg">
<path d="M17.8487 3.02338L15.2487 3.0107C12.0488 2.9951 10.039 4.98533 10.0234 8.18529L10.0037 12.2352L16.2536 12.2657C16.6636 12.2677 17.002 12.6094 17 13.0194C16.998 13.4294 16.6563 13.7677 16.2463 13.7657L9.99639 13.7352L9.97665 17.7852C9.96105 20.9851 11.9513 22.9949 15.1512 23.0105L17.7412 23.0231C20.9412 23.0387 22.9509 21.0485 22.9665 17.8485L23.0133 8.24861C23.0389 5.0487 21.0487 3.03897 17.8487 3.02338Z" fill="#292D32"/>
<path d="M5.56376 12.2134L7.64383 10.1536C7.79456 10.0043 7.86549 9.81463 7.86641 9.62464C7.86734 9.43464 7.79831 9.2343 7.649 9.09357C7.36042 8.80216 6.88042 8.79982 6.58901 9.0884L3.22272 12.422C2.93131 12.7106 2.92897 13.1906 3.21755 13.482L6.55118 16.8483C6.83977 17.1397 7.31976 17.1421 7.61117 16.8535C7.90258 16.5649 7.90492 16.0849 7.61634 15.7935L5.55645 13.7134L9.9964 13.7351L10.0037 12.2351L5.56376 12.2134Z" fill="#292D32"/>
</svg>
