<svg width="24" height="24" viewBox="0 0 24 24" fill="none" xmlns="http://www.w3.org/2000/svg">
<path d="M18.999 8C20.6559 8 21.999 6.65685 21.999 5C21.999 3.34315 20.6559 2 18.999 2C17.3422 2 15.999 3.34315 15.999 5C15.999 6.65685 17.3422 8 18.999 8Z" fill="#5B6B79"/>
<path opacity="0.4" d="M18.999 9.5C16.519 9.5 14.499 7.48 14.499 5C14.499 4.28 14.689 3.61 14.989 3H7.51902C4.06902 3 1.99902 5.06 1.99902 8.52V16.47C1.99902 19.94 4.06902 22 7.51902 22H15.469C18.929 22 20.989 19.94 20.989 16.48V9.01C20.389 9.31 19.719 9.5 18.999 9.5Z" fill="#5B6B79"/>
<path d="M11.749 14H6.74902C6.33902 14 5.99902 13.66 5.99902 13.25C5.99902 12.84 6.33902 12.5 6.74902 12.5H11.749C12.159 12.5 12.499 12.84 12.499 13.25C12.499 13.66 12.159 14 11.749 14Z" fill="#5B6B79"/>
<path d="M15.749 18H6.74902C6.33902 18 5.99902 17.66 5.99902 17.25C5.99902 16.84 6.33902 16.5 6.74902 16.5H15.749C16.159 16.5 16.499 16.84 16.499 17.25C16.499 17.66 16.159 18 15.749 18Z" fill="#5B6B79"/>
</svg>
