<svg width="18" height="18" viewBox="0 0 18 18" fill="none" xmlns="http://www.w3.org/2000/svg">
<path opacity="0.4" d="M14.325 15.2249C14.175 15.2249 14.025 15.1499 13.95 15.0749C13.725 14.8499 13.725 14.4749 13.95 14.2499C15.225 12.9749 15.9 11.2499 15.9 9.3749C15.9 5.5499 12.825 2.4749 8.99999 2.4749C5.17499 2.4749 2.09999 5.5499 2.09999 9.3749C2.09999 11.1749 2.77499 12.8999 4.04999 14.2499C4.27499 14.4749 4.27499 14.8499 4.04999 15.0749C3.82499 15.2999 3.44999 15.2999 3.22499 15.0749C1.72499 13.5749 0.899994 11.5499 0.899994 9.4499C0.899994 4.9499 4.57499 1.2749 8.99999 1.2749C13.425 1.2749 17.1 4.8749 17.1 9.3749C17.1 11.4749 16.275 13.4999 14.775 14.9999C14.625 15.1499 14.475 15.2249 14.325 15.2249Z" fill="#353535"/>
<path d="M9.00001 16.4999C10.6154 16.4999 11.925 15.1903 11.925 13.5749C11.925 11.9595 10.6154 10.6499 9.00001 10.6499C7.38458 10.6499 6.07501 11.9595 6.07501 13.5749C6.07501 15.1903 7.38458 16.4999 9.00001 16.4999Z" fill="#353535"/>
<path d="M12 6.375C11.175 6.375 10.5 7.05 10.5 7.875V8.475C10.5 9 10.95 9.375 11.4 9.375H12C12.825 9.375 13.5 8.7 13.5 7.875C13.5 7.05 12.825 6.375 12 6.375Z" fill="#353535"/>
</svg>
