<svg width="24" height="24" viewBox="0 0 24 24" fill="none" xmlns="http://www.w3.org/2000/svg">
<path d="M11.999 19C15.865 19 18.999 15.866 18.999 12C18.999 8.13401 15.865 5 11.999 5C8.13303 5 4.99902 8.13401 4.99902 12C4.99902 15.866 8.13303 19 11.999 19Z" fill="#5B6B79"/>
<path d="M11.999 22.96C11.449 22.96 10.999 22.55 10.999 22V21.92C10.999 21.37 11.449 20.92 11.999 20.92C12.549 20.92 12.999 21.37 12.999 21.92C12.999 22.47 12.549 22.96 11.999 22.96ZM19.139 20.14C18.879 20.14 18.629 20.04 18.429 19.85L18.299 19.72C17.909 19.33 17.909 18.7 18.299 18.31C18.689 17.92 19.319 17.92 19.709 18.31L19.839 18.44C20.229 18.83 20.229 19.46 19.839 19.85C19.649 20.04 19.399 20.14 19.139 20.14ZM4.85902 20.14C4.59902 20.14 4.34902 20.04 4.14902 19.85C3.75902 19.46 3.75902 18.83 4.14902 18.44L4.27902 18.31C4.66902 17.92 5.29902 17.92 5.68902 18.31C6.07902 18.7 6.07902 19.33 5.68902 19.72L5.55902 19.85C5.36902 20.04 5.10902 20.14 4.85902 20.14ZM21.999 13H21.919C21.369 13 20.919 12.55 20.919 12C20.919 11.45 21.369 11 21.919 11C22.469 11 22.959 11.45 22.959 12C22.959 12.55 22.549 13 21.999 13ZM2.07902 13H1.99902C1.44902 13 0.999023 12.55 0.999023 12C0.999023 11.45 1.44902 11 1.99902 11C2.54902 11 3.03902 11.45 3.03902 12C3.03902 12.55 2.62902 13 2.07902 13ZM19.009 5.99C18.749 5.99 18.499 5.89 18.299 5.7C17.909 5.31 17.909 4.68 18.299 4.29L18.429 4.16C18.819 3.77 19.449 3.77 19.839 4.16C20.229 4.55 20.229 5.18 19.839 5.57L19.709 5.7C19.519 5.89 19.269 5.99 19.009 5.99ZM4.98902 5.99C4.72902 5.99 4.47902 5.89 4.27902 5.7L4.14902 5.56C3.75902 5.17 3.75902 4.54 4.14902 4.15C4.53902 3.76 5.16902 3.76 5.55902 4.15L5.68902 4.28C6.07902 4.67 6.07902 5.3 5.68902 5.69C5.49902 5.89 5.23902 5.99 4.98902 5.99ZM11.999 3.04C11.449 3.04 10.999 2.63 10.999 2.08V2C10.999 1.45 11.449 1 11.999 1C12.549 1 12.999 1.45 12.999 2C12.999 2.55 12.549 3.04 11.999 3.04Z" fill="#535353"/>
</svg>
