<svg width="20" height="20" viewBox="0 0 20 20" fill="none" xmlns="http://www.w3.org/2000/svg">
<path opacity="0.4" d="M10.8333 7.5H5.83331" stroke="#4680FF" stroke-width="1.5" stroke-linecap="round" stroke-linejoin="round"/>
<path d="M18.3333 9.14171V10.8584C18.3333 11.3168 17.9667 11.6917 17.5 11.7084H15.8667C14.9667 11.7084 14.1417 11.0501 14.0667 10.1501C14.0167 9.62507 14.2167 9.13339 14.5667 8.79173C14.875 8.47506 15.3 8.29175 15.7667 8.29175H17.5C17.9667 8.30841 18.3333 8.68338 18.3333 9.14171Z" stroke="#4680FF" stroke-width="1.5" stroke-linecap="round" stroke-linejoin="round"/>
<path d="M14.5667 8.79174C14.2167 9.1334 14.0167 9.62508 14.0667 10.1501C14.1417 11.0501 14.9667 11.7084 15.8667 11.7084H17.5V12.9167C17.5 15.4167 15.8334 17.0834 13.3334 17.0834H5.83335C3.33335 17.0834 1.66669 15.4167 1.66669 12.9167V7.08341C1.66669 4.81675 3.03336 3.23341 5.15836 2.96675C5.37502 2.93341 5.60002 2.91675 5.83335 2.91675H13.3334C13.55 2.91675 13.7584 2.92507 13.9584 2.9584C16.1084 3.2084 17.5 4.80008 17.5 7.08341V8.29176H15.7667C15.3 8.29176 14.875 8.47507 14.5667 8.79174Z" stroke="#4680FF" stroke-width="1.5" stroke-linecap="round" stroke-linejoin="round"/>
</svg>
