<svg width="17" height="16" viewBox="0 0 17 16" fill="none" xmlns="http://www.w3.org/2000/svg">
<path d="M14.8531 10.62C14.7465 10.44 14.4465 10.16 13.6998 10.2933C13.2865 10.3667 12.8665 10.4 12.4465 10.38C10.8931 10.3133 9.48647 9.6 8.50647 8.5C7.63981 7.53333 7.10647 6.27333 7.0998 4.91333C7.0998 4.15333 7.24647 3.42 7.54647 2.72666C7.83981 2.05333 7.63314 1.7 7.48647 1.55333C7.33314 1.4 6.97314 1.18666 6.26647 1.48C3.53981 2.62666 1.85314 5.36 2.05314 8.28666C2.25314 11.04 4.18647 13.3933 6.74647 14.28C7.35981 14.4933 8.00647 14.62 8.67314 14.6467C8.77981 14.6533 8.88647 14.66 8.99314 14.66C11.2265 14.66 13.3198 13.6067 14.6398 11.8133C15.0865 11.1933 14.9665 10.8 14.8531 10.62Z" fill="#9FA2AA"/>
</svg>
