<svg width="16" height="16" viewBox="0 0 16 16" fill="none" xmlns="http://www.w3.org/2000/svg">
<path d="M8.00016 12.6666C10.5775 12.6666 12.6668 10.5772 12.6668 7.99992C12.6668 5.42259 10.5775 3.33325 8.00016 3.33325C5.42283 3.33325 3.3335 5.42259 3.3335 7.99992C3.3335 10.5772 5.42283 12.6666 8.00016 12.6666Z" fill="#292D32"/>
<path d="M7.99984 15.3067C7.63317 15.3067 7.33317 15.0334 7.33317 14.6667V14.6134C7.33317 14.2467 7.63317 13.9467 7.99984 13.9467C8.3665 13.9467 8.6665 14.2467 8.6665 14.6134C8.6665 14.9801 8.3665 15.3067 7.99984 15.3067ZM12.7598 13.4267C12.5865 13.4267 12.4198 13.3601 12.2865 13.2334L12.1998 13.1467C11.9398 12.8867 11.9398 12.4667 12.1998 12.2067C12.4598 11.9467 12.8798 11.9467 13.1398 12.2067L13.2265 12.2934C13.4865 12.5534 13.4865 12.9734 13.2265 13.2334C13.0998 13.3601 12.9332 13.4267 12.7598 13.4267ZM3.23984 13.4267C3.0665 13.4267 2.89984 13.3601 2.7665 13.2334C2.5065 12.9734 2.5065 12.5534 2.7665 12.2934L2.85317 12.2067C3.11317 11.9467 3.53317 11.9467 3.79317 12.2067C4.05317 12.4667 4.05317 12.8867 3.79317 13.1467L3.7065 13.2334C3.57984 13.3601 3.4065 13.4267 3.23984 13.4267ZM14.6665 8.66675H14.6132C14.2465 8.66675 13.9465 8.36675 13.9465 8.00008C13.9465 7.63341 14.2465 7.33342 14.6132 7.33342C14.9798 7.33342 15.3065 7.63341 15.3065 8.00008C15.3065 8.36675 15.0332 8.66675 14.6665 8.66675ZM1.3865 8.66675H1.33317C0.966504 8.66675 0.666504 8.36675 0.666504 8.00008C0.666504 7.63341 0.966504 7.33342 1.33317 7.33342C1.69984 7.33342 2.0265 7.63341 2.0265 8.00008C2.0265 8.36675 1.75317 8.66675 1.3865 8.66675ZM12.6732 3.99341C12.4998 3.99341 12.3332 3.92675 12.1998 3.80008C11.9398 3.54008 11.9398 3.12008 12.1998 2.86008L12.2865 2.77341C12.5465 2.51341 12.9665 2.51341 13.2265 2.77341C13.4865 3.03341 13.4865 3.45341 13.2265 3.71341L13.1398 3.80008C13.0132 3.92675 12.8465 3.99341 12.6732 3.99341ZM3.3265 3.99341C3.15317 3.99341 2.9865 3.92675 2.85317 3.80008L2.7665 3.70675C2.5065 3.44675 2.5065 3.02675 2.7665 2.76675C3.0265 2.50675 3.4465 2.50675 3.7065 2.76675L3.79317 2.85342C4.05317 3.11342 4.05317 3.53341 3.79317 3.79341C3.6665 3.92675 3.49317 3.99341 3.3265 3.99341ZM7.99984 2.02675C7.63317 2.02675 7.33317 1.75341 7.33317 1.38675V1.33341C7.33317 0.966748 7.63317 0.666748 7.99984 0.666748C8.3665 0.666748 8.6665 0.966748 8.6665 1.33341C8.6665 1.70008 8.3665 2.02675 7.99984 2.02675Z" fill="#1E1E1E"/>
</svg>
