<svg width="13" height="12" viewBox="0 0 13 12" fill="none" xmlns="http://www.w3.org/2000/svg">
<path fill-rule="evenodd" clip-rule="evenodd" d="M0.587402 6.00008C0.587402 9.43341 2.9874 11.8334 6.42074 11.8334C6.69407 11.8334 6.92074 11.6067 6.92074 11.3334C6.92074 11.0601 6.69407 10.8334 6.42074 10.8334C3.57407 10.8334 1.5874 8.84675 1.5874 6.00008C1.5874 3.15341 3.57407 1.16675 6.42074 1.16675C6.69407 1.16675 6.92074 0.940081 6.92074 0.666748C6.92074 0.393415 6.69407 0.166748 6.42074 0.166748C2.9874 0.166748 0.587402 2.56675 0.587402 6.00008ZM10.2074 8.24675C10.0807 8.24675 9.95407 8.20008 9.85407 8.10008C9.66074 7.90675 9.66074 7.58675 9.85407 7.39342L10.7074 6.54008H5.0874C4.81407 6.54008 4.5874 6.31341 4.5874 6.04008C4.5874 5.76675 4.81407 5.54008 5.0874 5.54008H10.7074L9.85407 4.68675C9.66074 4.49341 9.66074 4.17342 9.85407 3.98008C10.0474 3.78675 10.3674 3.78675 10.5607 3.98008L12.2674 5.68675C12.4607 5.88008 12.4607 6.20008 12.2674 6.39341L10.5607 8.10008C10.4607 8.20008 10.3341 8.24675 10.2074 8.24675Z" fill="white"/>
</svg>
