<svg width="20" height="20" viewBox="0 0 20 20" fill="none" xmlns="http://www.w3.org/2000/svg">
<g clip-path="url(#clip0_112_46278)">
<path d="M10 18.8584C9.4417 18.8584 8.87503 18.7334 8.43337 18.4751L3.85003 15.8334C1.98337 14.5751 1.8667 14.3834 1.8667 12.4084V7.59175C1.8667 5.61675 1.97503 5.42508 3.80837 4.18341L8.42503 1.51675C9.30003 1.00841 10.675 1.00841 11.55 1.51675L16.15 4.16675C18.0167 5.42508 18.1334 5.61675 18.1334 7.59175V12.4001C18.1334 14.3751 18.025 14.5667 16.1917 15.8084L11.575 18.4751C11.125 18.7334 10.5584 18.8584 10 18.8584ZM10 2.39175C9.65003 2.39175 9.30837 2.45841 9.0667 2.60008L4.48337 5.25008C3.12503 6.16675 3.12503 6.16675 3.12503 7.59175V12.4001C3.12503 13.8251 3.12503 13.8251 4.5167 14.7667L9.0667 17.3918C9.55837 17.6751 10.45 17.6751 10.9417 17.3918L15.525 14.7417C16.875 13.8251 16.875 13.8251 16.875 12.4001V7.59175C16.875 6.16675 16.875 6.16675 15.4834 5.22508L10.9334 2.60008C10.6917 2.45841 10.35 2.39175 10 2.39175Z" fill="#5B6B79"/>
<path d="M10 13.125C8.275 13.125 6.875 11.725 6.875 10C6.875 8.275 8.275 6.875 10 6.875C11.725 6.875 13.125 8.275 13.125 10C13.125 11.725 11.725 13.125 10 13.125ZM10 8.125C8.96667 8.125 8.125 8.96667 8.125 10C8.125 11.0333 8.96667 11.875 10 11.875C11.0333 11.875 11.875 11.0333 11.875 10C11.875 8.96667 11.0333 8.125 10 8.125Z" fill="#5B6B79"/>
</g>
<defs>
<clipPath id="clip0_112_46278">
<rect width="20" height="20" rx="10" fill="white"/>
</clipPath>
</defs>
</svg>
