<svg width="14" height="16" viewBox="0 0 14 16" fill="none" xmlns="http://www.w3.org/2000/svg">
<path fill-rule="evenodd" clip-rule="evenodd" d="M6.24003 14.7825C6.59336 14.9892 7.04669 15.0892 7.49336 15.0892C7.94003 15.0892 8.39336 14.9892 8.75336 14.7825L12.4467 12.6492C13.9134 11.6558 14 11.5025 14 9.92249V6.07583C14 4.49583 13.9067 4.34249 12.4134 3.33583L8.73336 1.21583C8.03336 0.809161 6.93336 0.809161 6.23336 1.21583L2.54003 3.34916C1.07336 4.34249 0.986694 4.49583 0.986694 6.07583V9.92916C0.986694 11.5092 1.08003 11.6625 2.57336 12.6692L6.24003 14.7825ZM6.74669 2.08249C6.94003 1.96916 7.21336 1.91583 7.49336 1.91583C7.77336 1.91583 8.04669 1.96916 8.24003 2.08249L11.88 4.18249C12.4742 4.58457 12.7513 4.77205 12.8805 5.03279C12.9934 5.26058 12.9934 5.54428 12.9934 6.07583V9.92249C12.9934 11.0625 12.9934 11.0625 11.9134 11.7958L8.24669 13.9158C7.85336 14.1425 7.14003 14.1425 6.74669 13.9158L3.10669 11.8158C2.51247 11.4138 2.23541 11.2263 2.10622 10.9655C1.99336 10.7377 1.99336 10.454 1.99336 9.92249V6.07583C1.99336 5.53843 1.99336 5.25436 2.10719 5.02738C2.23484 4.77287 2.50562 4.59013 3.08003 4.20249L6.74669 2.08249ZM4.99336 8.00249C4.99336 9.38249 6.11336 10.5025 7.49336 10.5025C8.87336 10.5025 9.99336 9.38249 9.99336 8.00249C9.99336 6.62249 8.87336 5.50249 7.49336 5.50249C6.11336 5.50249 4.99336 6.62249 4.99336 8.00249ZM5.99336 8.00249C5.99336 7.17583 6.66669 6.50249 7.49336 6.50249C8.32003 6.50249 8.99336 7.17583 8.99336 8.00249C8.99336 8.82916 8.32003 9.50249 7.49336 9.50249C6.66669 9.50249 5.99336 8.82916 5.99336 8.00249Z" fill="white"/>
</svg>
