<svg width="32" height="32" viewBox="0 0 32 32" fill="none" xmlns="http://www.w3.org/2000/svg">
<rect width="32" height="32" rx="6" fill="#EDF3FF"/>
<path opacity="0.4" d="M23.5 24.3333H8.5C8.15833 24.3333 7.875 24.05 7.875 23.7083C7.875 23.3666 8.15833 23.0833 8.5 23.0833H23.5C23.8417 23.0833 24.125 23.3666 24.125 23.7083C24.125 24.05 23.8417 24.3333 23.5 24.3333Z" fill="#4680FF"/>
<path opacity="0.4" d="M21.85 8.89999C20.2333 7.28332 18.65 7.24166 16.9916 8.89999L15.9833 9.90832C15.9 9.99166 15.8666 10.125 15.9 10.2417C16.5333 12.45 18.3 14.2167 20.5083 14.85C20.5416 14.8583 20.575 14.8667 20.6083 14.8667C20.7 14.8667 20.7833 14.8333 20.85 14.7667L21.85 13.7583C22.675 12.9417 23.075 12.15 23.075 11.35C23.0833 10.525 22.6833 9.72499 21.85 8.89999Z" fill="#4680FF"/>
<path d="M19.0083 15.6084C18.7666 15.4917 18.5333 15.375 18.3083 15.2417C18.125 15.1334 17.95 15.0167 17.775 14.8917C17.6333 14.8 17.4666 14.6667 17.3083 14.5334C17.2916 14.525 17.2333 14.475 17.1666 14.4084C16.8916 14.175 16.5833 13.875 16.3083 13.5417C16.2833 13.525 16.2416 13.4667 16.1833 13.3917C16.1 13.2917 15.9583 13.125 15.8333 12.9334C15.7333 12.8084 15.6166 12.625 15.5083 12.4417C15.375 12.2167 15.2583 11.9917 15.1416 11.7584C15.025 11.5084 14.9333 11.2667 14.85 11.0417L9.61665 16.275C9.50831 16.3834 9.40831 16.5917 9.38331 16.7334L8.93331 19.925C8.84998 20.4917 9.00831 21.025 9.35831 21.3834C9.65831 21.675 10.075 21.8334 10.525 21.8334C10.625 21.8334 10.725 21.825 10.825 21.8084L14.025 21.3584C14.175 21.3334 14.3833 21.2334 14.4833 21.125L19.7166 15.8917C19.4833 15.8084 19.2583 15.7167 19.0083 15.6084Z" fill="#4680FF"/>
</svg>
