<svg width="32" height="32" viewBox="0 0 32 32" fill="none" xmlns="http://www.w3.org/2000/svg">
<rect width="32" height="32" rx="6" fill="#EFEFEF"/>
<path opacity="0.4" d="M23.7084 13.625C21.7834 10.6 18.9667 8.85834 16 8.85834C14.5167 8.85834 13.075 9.29167 11.7584 10.1C10.4417 10.9167 9.25835 12.1083 8.29169 13.625C7.45835 14.9333 7.45835 17.0583 8.29169 18.3667C10.2167 21.4 13.0334 23.1333 16 23.1333C17.4834 23.1333 18.925 22.7 20.2417 21.8917C21.5584 21.075 22.7417 19.8833 23.7084 18.3667C24.5417 17.0667 24.5417 14.9333 23.7084 13.625ZM16 19.3667C14.1334 19.3667 12.6334 17.8583 12.6334 16C12.6334 14.1417 14.1334 12.6333 16 12.6333C17.8667 12.6333 19.3667 14.1417 19.3667 16C19.3667 17.8583 17.8667 19.3667 16 19.3667Z" fill="#5B6B79"/>
<path d="M16 13.6166C14.6917 13.6166 13.625 14.6833 13.625 16C13.625 17.3083 14.6917 18.375 16 18.375C17.3083 18.375 18.3833 17.3083 18.3833 16C18.3833 14.6916 17.3083 13.6166 16 13.6166Z" fill="#5B6B79"/>
</svg>
