<svg width="43" height="44" viewBox="0 0 43 44" fill="none" xmlns="http://www.w3.org/2000/svg">
<rect x="0.5" y="0.499512" width="42" height="43" rx="7.5" fill="#4CB592"/>
<rect x="0.5" y="0.499512" width="42" height="43" rx="7.5" stroke="#4CB592"/>
<g clip-path="url(#clip0_57_34404)">
<path d="M18.3119 28.4965C17.8009 28.4967 17.3109 28.2936 16.9499 27.932L12.8323 23.8159C12.3892 23.3727 12.3892 22.6543 12.8323 22.2111C13.2755 21.768 13.9939 21.768 14.4371 22.2111L18.3119 26.0858L28.5629 15.8349C29.0061 15.3918 29.7245 15.3918 30.1677 15.8349C30.6108 16.2781 30.6108 16.9965 30.1677 17.4397L19.6738 27.932C19.3129 28.2936 18.8228 28.4967 18.3119 28.4965Z" fill="white"/>
</g>
<defs>
<clipPath id="clip0_57_34404">
<rect width="18" height="18" fill="white" transform="translate(12.5 12.9995)"/>
</clipPath>
</defs>
</svg>
