<svg width="46" height="44" viewBox="0 0 46 44" fill="none" xmlns="http://www.w3.org/2000/svg">
<rect x="0.666656" y="-0.000488281" width="45" height="44" rx="8" fill="#4680FF"/>
<path d="M16.8357 29.2765C15.6662 29.2765 14.6624 28.9806 13.8243 28.3887C12.991 27.7921 12.3494 26.9328 11.8996 25.8106C11.4545 24.6837 11.232 23.3272 11.232 21.741C11.2367 20.1548 11.4616 18.8054 11.9067 17.6927C12.3565 16.5753 12.9981 15.723 13.8314 15.1359C14.6695 14.5488 15.6709 14.2552 16.8357 14.2552C18.0005 14.2552 19.0019 14.5488 19.84 15.1359C20.678 15.723 21.3196 16.5753 21.7647 17.6927C22.2145 18.8101 22.4394 20.1595 22.4394 21.741C22.4394 23.3319 22.2145 24.6908 21.7647 25.8177C21.3196 26.9399 20.678 27.7969 19.84 28.3887C19.0066 28.9806 18.0052 29.2765 16.8357 29.2765ZM16.8357 27.0535C17.7448 27.0535 18.4621 26.606 18.9877 25.7112C19.518 24.8115 19.7831 23.4881 19.7831 21.741C19.7831 20.5857 19.6624 19.615 19.4209 18.8291C19.1794 18.0431 18.8385 17.4512 18.3982 17.0535C17.9579 16.651 17.437 16.4498 16.8357 16.4498C15.9313 16.4498 15.2164 16.8996 14.6908 17.7992C14.1652 18.6941 13.9001 20.008 13.8953 21.741C13.8906 22.901 14.0066 23.8764 14.2434 24.6671C14.4848 25.4578 14.8257 26.0544 15.2661 26.4569C15.7064 26.8546 16.2296 27.0535 16.8357 27.0535ZM24.7991 28.9995V27.0961L29.8488 22.1458C30.3318 21.6581 30.7342 21.2249 31.0562 20.8461C31.3782 20.4673 31.6197 20.1004 31.7806 19.7452C31.9416 19.3901 32.0221 19.0113 32.0221 18.6089C32.0221 18.1496 31.918 17.7566 31.7096 17.4299C31.5013 17.0985 31.2148 16.8428 30.8503 16.6629C30.4857 16.4829 30.0714 16.393 29.6074 16.393C29.1291 16.393 28.7101 16.4924 28.3503 16.6913C27.9904 16.8854 27.711 17.1624 27.5122 17.5222C27.3181 17.8821 27.221 18.3106 27.221 18.8078H24.7139C24.7139 17.8845 24.9246 17.0819 25.346 16.4001C25.7674 15.7183 26.3474 15.1903 27.086 14.8163C27.8294 14.4422 28.6817 14.2552 29.6429 14.2552C30.6182 14.2552 31.4753 14.4375 32.2139 14.8021C32.9525 15.1667 33.5254 15.6662 33.9326 16.3006C34.3446 16.9351 34.5505 17.6595 34.5505 18.4739C34.5505 19.0185 34.4464 19.5535 34.238 20.0791C34.0297 20.6046 33.6628 21.187 33.1372 21.8262C32.6163 22.4654 31.8848 23.2396 30.9426 24.1487L28.4355 26.6984V26.7978H34.7707V28.9995H24.7991Z" fill="white"/>
</svg>
