<svg width="46" height="44" viewBox="0 0 46 44" fill="none" xmlns="http://www.w3.org/2000/svg">
<rect x="0.666656" y="-0.000488281" width="45" height="44" rx="8" fill="#4680FF"/>
<path d="M16.3357 29.2765C15.1662 29.2765 14.1624 28.9806 13.3243 28.3887C12.491 27.7921 11.8494 26.9328 11.3996 25.8106C10.9545 24.6837 10.732 23.3272 10.732 21.741C10.7367 20.1548 10.9616 18.8054 11.4067 17.6927C11.8565 16.5753 12.4981 15.723 13.3314 15.1359C14.1695 14.5488 15.1709 14.2552 16.3357 14.2552C17.5005 14.2552 18.5019 14.5488 19.34 15.1359C20.178 15.723 20.8196 16.5753 21.2647 17.6927C21.7145 18.8101 21.9394 20.1595 21.9394 21.741C21.9394 23.3319 21.7145 24.6908 21.2647 25.8177C20.8196 26.9399 20.178 27.7969 19.34 28.3887C18.5066 28.9806 17.5052 29.2765 16.3357 29.2765ZM16.3357 27.0535C17.2448 27.0535 17.9621 26.606 18.4877 25.7112C19.018 24.8115 19.2831 23.4881 19.2831 21.741C19.2831 20.5857 19.1624 19.615 18.9209 18.8291C18.6794 18.0431 18.3385 17.4512 17.8982 17.0535C17.4579 16.651 16.937 16.4498 16.3357 16.4498C15.4313 16.4498 14.7164 16.8996 14.1908 17.7992C13.6652 18.6941 13.4001 20.008 13.3953 21.741C13.3906 22.901 13.5066 23.8764 13.7434 24.6671C13.9848 25.4578 14.3257 26.0544 14.7661 26.4569C15.2064 26.8546 15.7296 27.0535 16.3357 27.0535ZM24.0718 25.0435H26.7352C26.7683 25.4507 26.9056 25.8011 27.1471 26.0947C27.3886 26.3835 27.7058 26.606 28.0988 26.7623C28.4918 26.9138 28.9298 26.9896 29.4128 26.9896C29.9241 26.9896 30.381 26.902 30.7835 26.7268C31.186 26.5469 31.5008 26.2912 31.7281 25.9597C31.9601 25.6236 32.0761 25.2164 32.0761 24.7381C32.0761 24.2978 31.9648 23.8977 31.7423 23.5379C31.5245 23.1733 31.1907 22.8845 30.7409 22.6714C30.2911 22.4536 29.7158 22.3447 29.015 22.3447H27.5733V20.4484L30.9397 16.7552V16.6558H24.7892V14.4541H34.2636V16.3575L30.3574 20.562V20.6756C31.077 20.7325 31.7115 20.884 32.2608 21.1302C32.8147 21.3764 33.2788 21.6913 33.6528 22.0748C34.0269 22.4583 34.3086 22.8892 34.498 23.3674C34.6874 23.8456 34.7821 24.3475 34.7821 24.8731C34.7821 25.7254 34.5477 26.4758 34.0789 27.1245C33.6149 27.7732 32.9757 28.2822 32.1613 28.6515C31.3517 29.0161 30.4284 29.1984 29.3914 29.1984C28.3971 29.1984 27.5046 29.0279 26.7139 28.687C25.9279 28.3461 25.3005 27.8655 24.8318 27.2453C24.363 26.6203 24.1097 25.8863 24.0718 25.0435Z" fill="white"/>
</svg>
