<svg width="46" height="44" viewBox="0 0 46 44" fill="none" xmlns="http://www.w3.org/2000/svg">
<rect x="0.5" y="0.5" width="45" height="43" rx="7.5" fill="white"/>
<rect x="0.5" y="0.5" width="45" height="43" rx="7.5" stroke="#F5F5F5"/>
<path d="M16.669 29.277C15.4995 29.277 14.4957 28.9811 13.6577 28.3892C12.8243 27.7926 12.1828 26.9332 11.733 25.8111C11.2879 24.6842 11.0653 23.3277 11.0653 21.7415C11.0701 20.1553 11.295 18.8059 11.7401 17.6932C12.1899 16.5758 12.8314 15.7235 13.6648 15.1364C14.5028 14.5492 15.5043 14.2557 16.669 14.2557C17.8338 14.2557 18.8352 14.5492 19.6733 15.1364C20.5114 15.7235 21.1529 16.5758 21.598 17.6932C22.0478 18.8106 22.2727 20.16 22.2727 21.7415C22.2727 23.3324 22.0478 24.6913 21.598 25.8182C21.1529 26.9403 20.5114 27.7973 19.6733 28.3892C18.84 28.9811 17.8385 29.277 16.669 29.277ZM16.669 27.054C17.5781 27.054 18.2955 26.6065 18.821 25.7116C19.3513 24.812 19.6165 23.4886 19.6165 21.7415C19.6165 20.5862 19.4957 19.6155 19.2543 18.8295C19.0128 18.0436 18.6719 17.4517 18.2315 17.054C17.7912 16.6515 17.2704 16.4503 16.669 16.4503C15.7647 16.4503 15.0497 16.9001 14.5241 17.7997C13.9986 18.6946 13.7334 20.0085 13.7287 21.7415C13.724 22.9015 13.84 23.8769 14.0767 24.6676C14.3182 25.4583 14.6591 26.0549 15.0994 26.4574C15.5398 26.8551 16.063 27.054 16.669 27.054ZM24.6325 29V27.0966L29.6822 22.1463C30.1651 21.6586 30.5676 21.2254 30.8896 20.8466C31.2115 20.4678 31.453 20.1009 31.614 19.7457C31.775 19.3906 31.8555 19.0118 31.8555 18.6094C31.8555 18.1501 31.7513 17.7571 31.543 17.4304C31.3346 17.099 31.0482 16.8433 30.6836 16.6634C30.319 16.4834 29.9047 16.3935 29.4407 16.3935C28.9625 16.3935 28.5434 16.4929 28.1836 16.6918C27.8237 16.8859 27.5444 17.1629 27.3455 17.5227C27.1514 17.8826 27.0543 18.3111 27.0543 18.8082H24.5472C24.5472 17.8849 24.7579 17.0824 25.1793 16.4006C25.6007 15.7187 26.1808 15.1908 26.9194 14.8168C27.6628 14.4427 28.515 14.2557 29.4762 14.2557C30.4516 14.2557 31.3086 14.438 32.0472 14.8026C32.7859 15.1671 33.3588 15.6667 33.766 16.3011C34.1779 16.9356 34.3839 17.66 34.3839 18.4744C34.3839 19.0189 34.2797 19.554 34.0714 20.0795C33.863 20.6051 33.4961 21.1875 32.9705 21.8267C32.4497 22.4659 31.7182 23.2401 30.7759 24.1491L28.2688 26.6989V26.7983H34.604V29H24.6325Z" fill="#5B6B79"/>
</svg>
