<svg width="45" height="44" viewBox="0 0 45 44" fill="none" xmlns="http://www.w3.org/2000/svg">
<rect width="45" height="44" rx="8" fill="#4680FF"/>
<path d="M17.669 29.277C16.4995 29.277 15.4957 28.9811 14.6577 28.3892C13.8243 27.7926 13.1828 26.9332 12.733 25.8111C12.2879 24.6842 12.0653 23.3277 12.0653 21.7415C12.0701 20.1553 12.295 18.8059 12.7401 17.6932C13.1899 16.5758 13.8314 15.7235 14.6648 15.1364C15.5028 14.5492 16.5043 14.2557 17.669 14.2557C18.8338 14.2557 19.8352 14.5492 20.6733 15.1364C21.5114 15.7235 22.1529 16.5758 22.598 17.6932C23.0478 18.8106 23.2727 20.16 23.2727 21.7415C23.2727 23.3324 23.0478 24.6913 22.598 25.8182C22.1529 26.9403 21.5114 27.7973 20.6733 28.3892C19.84 28.9811 18.8385 29.277 17.669 29.277ZM17.669 27.054C18.5781 27.054 19.2955 26.6065 19.821 25.7116C20.3513 24.812 20.6165 23.4886 20.6165 21.7415C20.6165 20.5862 20.4957 19.6155 20.2543 18.8295C20.0128 18.0436 19.6719 17.4517 19.2315 17.054C18.7912 16.6515 18.2704 16.4503 17.669 16.4503C16.7647 16.4503 16.0497 16.9001 15.5241 17.7997C14.9986 18.6946 14.7334 20.0085 14.7287 21.7415C14.724 22.9015 14.84 23.8769 15.0767 24.6676C15.3182 25.4583 15.6591 26.0549 16.0994 26.4574C16.5398 26.8551 17.063 27.054 17.669 27.054ZM31.2006 14.4545V29H28.5586V17.821H28.4379C28.3432 17.9678 28.1632 18.1264 27.8981 18.2969C27.6329 18.4626 27.292 18.6046 26.8754 18.723C26.4634 18.8414 25.9828 18.9006 25.4336 18.9006V16.7699C25.9355 16.7699 26.3829 16.6823 26.7759 16.5071C27.1689 16.3319 27.5027 16.1141 27.7773 15.8537C28.0567 15.5933 28.2721 15.3352 28.4237 15.0795C28.5752 14.8239 28.658 14.6155 28.6722 14.4545H31.2006Z" fill="white"/>
</svg>
