<svg width="45" height="46" viewBox="0 0 45 46" fill="none" xmlns="http://www.w3.org/2000/svg">
<rect x="0.5" y="0.5" width="44" height="45" rx="7.5" fill="white"/>
<rect x="0.5" y="0.5" width="44" height="45" rx="7.5" stroke="#F5F5F5"/>
<path d="M15.669 30.277C14.4995 30.277 13.4957 29.9811 12.6577 29.3892C11.8243 28.7926 11.1828 27.9332 10.733 26.8111C10.2879 25.6842 10.0653 24.3277 10.0653 22.7415C10.0701 21.1553 10.295 19.8059 10.7401 18.6932C11.1899 17.5758 11.8314 16.7235 12.6648 16.1364C13.5028 15.5492 14.5043 15.2557 15.669 15.2557C16.8338 15.2557 17.8352 15.5492 18.6733 16.1364C19.5114 16.7235 20.1529 17.5758 20.598 18.6932C21.0478 19.8106 21.2727 21.16 21.2727 22.7415C21.2727 24.3324 21.0478 25.6913 20.598 26.8182C20.1529 27.9403 19.5114 28.7973 18.6733 29.3892C17.84 29.9811 16.8385 30.277 15.669 30.277ZM15.669 28.054C16.5781 28.054 17.2955 27.6065 17.821 26.7116C18.3513 25.812 18.6165 24.4886 18.6165 22.7415C18.6165 21.5862 18.4957 20.6155 18.2543 19.8295C18.0128 19.0436 17.6719 18.4517 17.2315 18.054C16.7912 17.6515 16.2704 17.4503 15.669 17.4503C14.7647 17.4503 14.0497 17.9001 13.5241 18.7997C12.9986 19.6946 12.7334 21.0085 12.7287 22.7415C12.724 23.9015 12.84 24.8769 13.0767 25.6676C13.3182 26.4583 13.6591 27.0549 14.0994 27.4574C14.5398 27.8551 15.063 28.054 15.669 28.054ZM23.4052 26.044H26.0685C26.1017 26.4512 26.239 26.8016 26.4805 27.0952C26.7219 27.384 27.0392 27.6065 27.4322 27.7628C27.8252 27.9143 28.2631 27.9901 28.7461 27.9901C29.2575 27.9901 29.7144 27.9025 30.1168 27.7273C30.5193 27.5473 30.8342 27.2917 31.0614 26.9602C31.2934 26.6241 31.4094 26.2169 31.4094 25.7386C31.4094 25.2983 31.2982 24.8982 31.0756 24.5384C30.8578 24.1738 30.524 23.8849 30.0742 23.6719C29.6244 23.4541 29.0491 23.3452 28.3484 23.3452H26.9066V21.4489L30.2731 17.7557V17.6562H24.1225V15.4545H33.5969V17.358L29.6907 21.5625V21.6761C30.4104 21.733 31.0449 21.8845 31.5941 22.1307C32.1481 22.3769 32.6121 22.6918 32.9862 23.0753C33.3602 23.4588 33.6419 23.8897 33.8313 24.3679C34.0207 24.8461 34.1154 25.348 34.1154 25.8736C34.1154 26.7259 33.881 27.4763 33.4123 28.125C32.9483 28.7737 32.3091 29.2827 31.4947 29.652C30.685 30.0166 29.7617 30.1989 28.7248 30.1989C27.7305 30.1989 26.8379 30.0284 26.0472 29.6875C25.2612 29.3466 24.6339 28.866 24.1651 28.2457C23.6964 27.6207 23.4431 26.8868 23.4052 26.044Z" fill="#5B6B79"/>
</svg>
