<svg width="16" height="17" viewBox="0 0 16 17" fill="none" xmlns="http://www.w3.org/2000/svg">
<path d="M15.1212 10.8978L13.9516 9.89778C14.007 9.5585 14.0355 9.21207 14.0355 8.86564C14.0355 8.51921 14.007 8.17278 13.9516 7.8335L15.1212 6.8335C15.2095 6.75797 15.2726 6.65738 15.3023 6.5451C15.3319 6.43282 15.3267 6.31417 15.2873 6.20492L15.2712 6.1585C14.9492 5.25854 14.4671 4.42427 13.848 3.696L13.8159 3.6585C13.7408 3.5702 13.6407 3.50672 13.5288 3.47644C13.4169 3.44615 13.2985 3.45048 13.1891 3.48885L11.7373 4.00492C11.2016 3.56564 10.6034 3.21921 9.95695 2.97635L9.67659 1.4585C9.65544 1.34429 9.60004 1.23921 9.51775 1.15724C9.43546 1.07527 9.33017 1.02028 9.21588 0.999568L9.16767 0.990639C8.23731 0.822782 7.25874 0.822782 6.32838 0.990639L6.28017 0.999568C6.16587 1.02028 6.06059 1.07527 5.9783 1.15724C5.896 1.23921 5.8406 1.34429 5.81945 1.4585L5.53731 2.9835C4.89604 3.2264 4.29886 3.57265 3.76945 4.0085L2.30695 3.48885C2.1976 3.45018 2.07908 3.44569 1.96712 3.476C1.85516 3.5063 1.75508 3.56995 1.68017 3.6585L1.64802 3.696C1.02971 4.42479 0.547622 5.25892 0.224808 6.1585L0.208737 6.20492C0.12838 6.42814 0.194451 6.67814 0.374808 6.8335L1.55874 7.84421C1.50338 8.17992 1.47659 8.52278 1.47659 8.86385C1.47659 9.20671 1.50338 9.54957 1.55874 9.8835L0.374808 10.8942C0.286586 10.9697 0.223445 11.0703 0.19378 11.1826C0.164115 11.2949 0.169331 11.4135 0.208737 11.5228L0.224808 11.5692C0.548023 12.4692 1.02659 13.2996 1.64802 14.0317L1.68017 14.0692C1.75526 14.1575 1.85535 14.221 1.96724 14.2513C2.07913 14.2816 2.19757 14.2772 2.30695 14.2389L3.76945 13.7192C4.30159 14.1567 4.89624 14.5031 5.53731 14.7442L5.81945 16.2692C5.8406 16.3834 5.896 16.4885 5.9783 16.5705C6.06059 16.6524 6.16587 16.7074 6.28017 16.7281L6.32838 16.7371C7.26728 16.9058 8.22876 16.9058 9.16767 16.7371L9.21588 16.7281C9.33017 16.7074 9.43546 16.6524 9.51775 16.5705C9.60004 16.4885 9.65544 16.3834 9.67659 16.2692L9.95695 14.7514C10.6031 14.5091 11.2047 14.1616 11.7373 13.7228L13.1891 14.2389C13.2984 14.2775 13.417 14.282 13.5289 14.2517C13.6409 14.2214 13.741 14.1578 13.8159 14.0692L13.848 14.0317C14.4694 13.2978 14.948 12.4692 15.2712 11.5692L15.2873 11.5228C15.3677 11.3031 15.3016 11.0531 15.1212 10.8978ZM12.6837 8.04421C12.7284 8.31385 12.7516 8.59064 12.7516 8.86742C12.7516 9.14421 12.7284 9.421 12.6837 9.69064L12.5659 10.4067L13.8998 11.5478C13.6976 12.0137 13.4423 12.4547 13.1391 12.8621L11.482 12.2746L10.9212 12.7353C10.4944 13.0853 10.0195 13.3603 9.50516 13.5531L8.82481 13.8085L8.50516 15.5406C8.00083 15.5978 7.49165 15.5978 6.98731 15.5406L6.66767 13.8049L5.99267 13.546C5.48374 13.3531 5.01052 13.0781 4.58731 12.7299L4.02659 12.2674L2.35874 12.8603C2.05517 12.4514 1.80159 12.0103 1.59802 11.546L2.94624 10.3942L2.83017 9.67992C2.78731 9.41385 2.76409 9.13885 2.76409 8.86742C2.76409 8.59421 2.78552 8.321 2.83017 8.05492L2.94624 7.34064L1.59802 6.18885C1.79981 5.72278 2.05517 5.2835 2.35874 4.87457L4.02659 5.46742L4.58731 5.00492C5.01052 4.65671 5.48374 4.38171 5.99267 4.18885L6.66945 3.9335L6.98909 2.19778C7.49088 2.14064 8.00338 2.14064 8.50695 2.19778L8.82659 3.92992L9.50695 4.18528C10.0195 4.37814 10.4962 4.65314 10.923 5.00314L11.4837 5.46385L13.1409 4.87635C13.4445 5.28528 13.698 5.72635 13.9016 6.19064L12.5677 7.33171L12.6837 8.04421ZM7.74981 5.546C6.01409 5.546 4.60695 6.95314 4.60695 8.68885C4.60695 10.4246 6.01409 11.8317 7.74981 11.8317C9.48552 11.8317 10.8927 10.4246 10.8927 8.68885C10.8927 6.95314 9.48552 5.546 7.74981 5.546ZM9.16409 10.1031C8.9786 10.2892 8.75815 10.4367 8.51543 10.5372C8.27271 10.6377 8.01252 10.6893 7.74981 10.6889C7.21588 10.6889 6.71409 10.4799 6.33552 10.1031C6.14949 9.91764 6.00198 9.6972 5.90146 9.45448C5.80094 9.21176 5.7494 8.95156 5.74981 8.68885C5.74981 8.15492 5.95874 7.65314 6.33552 7.27457C6.71409 6.896 7.21588 6.68885 7.74981 6.68885C8.28374 6.68885 8.78552 6.896 9.16409 7.27457C9.35012 7.46006 9.49764 7.68051 9.59816 7.92323C9.69868 8.16595 9.75022 8.42614 9.74981 8.68885C9.74981 9.22278 9.54088 9.72457 9.16409 10.1031Z" fill="#353535"/>
</svg>
