<svg width="40" height="40" viewBox="0 0 40 40" fill="none" xmlns="http://www.w3.org/2000/svg">
<rect width="40" height="40" rx="8" fill="#E6F5F0"/>
<path opacity="0.4" d="M17 10C14.38 10 12.25 12.13 12.25 14.75C12.25 17.32 14.26 19.4 16.88 19.49C16.96 19.48 17.04 19.48 17.1 19.49C17.12 19.49 17.13 19.49 17.15 19.49C17.16 19.49 17.16 19.49 17.17 19.49C19.73 19.4 21.74 17.32 21.75 14.75C21.75 12.13 19.62 10 17 10Z" fill="#2CA87F"/>
<path d="M22.08 22.1499C19.29 20.2899 14.74 20.2899 11.93 22.1499C10.66 22.9999 9.95996 24.1499 9.95996 25.3799C9.95996 26.6099 10.66 27.7499 11.92 28.5899C13.32 29.5299 15.16 29.9999 17 29.9999C18.84 29.9999 20.68 29.5299 22.08 28.5899C23.34 27.7399 24.04 26.5999 24.04 25.3599C24.03 24.1299 23.34 22.9899 22.08 22.1499Z" fill="#2CA87F"/>
<path opacity="0.4" d="M27.99 15.3401C28.15 17.2801 26.77 18.9801 24.86 19.2101C24.85 19.2101 24.85 19.2101 24.84 19.2101H24.81C24.75 19.2101 24.69 19.2101 24.64 19.2301C23.67 19.2801 22.78 18.9701 22.11 18.4001C23.14 17.4801 23.73 16.1001 23.61 14.6001C23.54 13.7901 23.26 13.0501 22.84 12.4201C23.22 12.2301 23.66 12.1101 24.11 12.0701C26.07 11.9001 27.82 13.3601 27.99 15.3401Z" fill="#2CA87F"/>
<path d="M29.99 24.5899C29.91 25.5599 29.29 26.3999 28.25 26.9699C27.25 27.5199 25.99 27.7799 24.74 27.7499C25.46 27.0999 25.88 26.2899 25.96 25.4299C26.06 24.1899 25.47 22.9999 24.29 22.0499C23.62 21.5199 22.84 21.0999 21.99 20.7899C24.2 20.1499 26.98 20.5799 28.69 21.9599C29.61 22.6999 30.08 23.6299 29.99 24.5899Z" fill="#2CA87F"/>
</svg>
